<svg width="16" height="17" viewBox="0 0 16 17" fill="none" xmlns="http://www.w3.org/2000/svg">
<path d="M7 12H8.33333V9.33333H11V8H8.33333V5.33333H7V8H4.33333V9.33333H7V12ZM7.66667 15.3333C6.74444 15.3333 5.87778 15.1583 5.06667 14.8083C4.25556 14.4583 3.55 13.9833 2.95 13.3833C2.35 12.7833 1.875 12.0778 1.525 11.2667C1.175 10.4556 1 9.58889 1 8.66667C1 7.74444 1.175 6.87778 1.525 6.06667C1.875 5.25556 2.35 4.55 2.95 3.95C3.55 3.35 4.25556 2.875 5.06667 2.525C5.87778 2.175 6.74444 2 7.66667 2C8.58889 2 9.45556 2.175 10.2667 2.525C11.0778 2.875 11.7833 3.35 12.3833 3.95C12.9833 4.55 13.4583 5.25556 13.8083 6.06667C14.1583 6.87778 14.3333 7.74444 14.3333 8.66667C14.3333 9.58889 14.1583 10.4556 13.8083 11.2667C13.4583 12.0778 12.9833 12.7833 12.3833 13.3833C11.7833 13.9833 11.0778 14.4583 10.2667 14.8083C9.45556 15.1583 8.58889 15.3333 7.66667 15.3333ZM7.66667 14C9.15556 14 10.4167 13.4833 11.45 12.45C12.4833 11.4167 13 10.1556 13 8.66667C13 7.17778 12.4833 5.91667 11.45 4.88333C10.4167 3.85 9.15556 3.33333 7.66667 3.33333C6.17778 3.33333 4.91667 3.85 3.88333 4.88333C2.85 5.91667 2.33333 7.17778 2.33333 8.66667C2.33333 10.1556 2.85 11.4167 3.88333 12.45C4.91667 13.4833 6.17778 14 7.66667 14Z" fill="#486EF8"/>
</svg>
