<svg width="16" height="17" viewBox="0 0 16 17" fill="none" xmlns="http://www.w3.org/2000/svg">
<path d="M3.33333 15.1667C2.96667 15.1667 2.65278 15.0362 2.39167 14.775C2.13056 14.5139 2 14.2 2 13.8334V4.50004C2 4.13337 2.13056 3.81949 2.39167 3.55837C2.65278 3.29726 2.96667 3.16671 3.33333 3.16671H4V1.83337H5.33333V3.16671H10.6667V1.83337H12V3.16671H12.6667C13.0333 3.16671 13.3472 3.29726 13.6083 3.55837C13.8694 3.81949 14 4.13337 14 4.50004V13.8334C14 14.2 13.8694 14.5139 13.6083 14.775C13.3472 15.0362 13.0333 15.1667 12.6667 15.1667H3.33333ZM3.33333 13.8334H12.6667V7.16671H3.33333V13.8334ZM3.33333 5.83337H12.6667V4.50004H3.33333V5.83337ZM8 9.83337C7.81111 9.83337 7.65278 9.76948 7.525 9.64171C7.39722 9.51393 7.33333 9.3556 7.33333 9.16671C7.33333 8.97782 7.39722 8.81948 7.525 8.69171C7.65278 8.56393 7.81111 8.50004 8 8.50004C8.18889 8.50004 8.34722 8.56393 8.475 8.69171C8.60278 8.81948 8.66667 8.97782 8.66667 9.16671C8.66667 9.3556 8.60278 9.51393 8.475 9.64171C8.34722 9.76948 8.18889 9.83337 8 9.83337ZM5.33333 9.83337C5.14444 9.83337 4.98611 9.76948 4.85833 9.64171C4.73056 9.51393 4.66667 9.3556 4.66667 9.16671C4.66667 8.97782 4.73056 8.81948 4.85833 8.69171C4.98611 8.56393 5.14444 8.50004 5.33333 8.50004C5.52222 8.50004 5.68056 8.56393 5.80833 8.69171C5.93611 8.81948 6 8.97782 6 9.16671C6 9.3556 5.93611 9.51393 5.80833 9.64171C5.68056 9.76948 5.52222 9.83337 5.33333 9.83337ZM10.6667 9.83337C10.4778 9.83337 10.3194 9.76948 10.1917 9.64171C10.0639 9.51393 10 9.3556 10 9.16671C10 8.97782 10.0639 8.81948 10.1917 8.69171C10.3194 8.56393 10.4778 8.50004 10.6667 8.50004C10.8556 8.50004 11.0139 8.56393 11.1417 8.69171C11.2694 8.81948 11.3333 8.97782 11.3333 9.16671C11.3333 9.3556 11.2694 9.51393 11.1417 9.64171C11.0139 9.76948 10.8556 9.83337 10.6667 9.83337ZM8 12.5C7.81111 12.5 7.65278 12.4362 7.525 12.3084C7.39722 12.1806 7.33333 12.0223 7.33333 11.8334C7.33333 11.6445 7.39722 11.4862 7.525 11.3584C7.65278 11.2306 7.81111 11.1667 8 11.1667C8.18889 11.1667 8.34722 11.2306 8.475 11.3584C8.60278 11.4862 8.66667 11.6445 8.66667 11.8334C8.66667 12.0223 8.60278 12.1806 8.475 12.3084C8.34722 12.4362 8.18889 12.5 8 12.5ZM5.33333 12.5C5.14444 12.5 4.98611 12.4362 4.85833 12.3084C4.73056 12.1806 4.66667 12.0223 4.66667 11.8334C4.66667 11.6445 4.73056 11.4862 4.85833 11.3584C4.98611 11.2306 5.14444 11.1667 5.33333 11.1667C5.52222 11.1667 5.68056 11.2306 5.80833 11.3584C5.93611 11.4862 6 11.6445 6 11.8334C6 12.0223 5.93611 12.1806 5.80833 12.3084C5.68056 12.4362 5.52222 12.5 5.33333 12.5ZM10.6667 12.5C10.4778 12.5 10.3194 12.4362 10.1917 12.3084C10.0639 12.1806 10 12.0223 10 11.8334C10 11.6445 10.0639 11.4862 10.1917 11.3584C10.3194 11.2306 10.4778 11.1667 10.6667 11.1667C10.8556 11.1667 11.0139 11.2306 11.1417 11.3584C11.2694 11.4862 11.3333 11.6445 11.3333 11.8334C11.3333 12.0223 11.2694 12.1806 11.1417 12.3084C11.0139 12.4362 10.8556 12.5 10.6667 12.5Z" fill="#333333"/>
</svg>
