<svg width="20" height="20" viewBox="0 0 20 20" fill="none" xmlns="http://www.w3.org/2000/svg">
<path d="M0.5 3C0.5 1.61929 1.61929 0.5 3 0.5H17C18.3807 0.5 19.5 1.61929 19.5 3V17C19.5 18.3807 18.3807 19.5 17 19.5H3C1.61929 19.5 0.5 18.3807 0.5 17V3Z" fill="#486EF8" stroke="#486EF8"/>
<path d="M7.59126 14.9093C7.33528 14.9093 7.07924 14.8123 6.88423 14.6163L4.29329 12.0253C3.90224 11.6353 3.90224 11.0023 4.29329 10.6113C4.68428 10.2213 5.31624 10.2213 5.70723 10.6113L7.59126 12.4953L13.7933 6.29329C14.1843 5.90224 14.8162 5.90224 15.2072 6.29329C15.5983 6.68428 15.5983 7.31624 15.2072 7.70723L8.29823 14.6163C8.10329 14.8123 7.84724 14.9093 7.59126 14.9093Z" fill="white"/>
</svg>
